<svg width="23" height="26" viewBox="0 0 23 26" xmlns="http://www.w3.org/2000/svg">
  <path
    d="m11.5002 1.7998.6298-.64292c-.3499-.342768-.9097-.342768-1.2596 0zm-9.8 9.6-.62981-.6429-.270195.2647v.3782zm6.99999 12.8v.9c.49706 0 .9-.4029.9-.9zm5.60001 0h-.9c0 .4971.4029.9.9.9zm7-12.8h.9v-.3782l-.2702-.2647zm-18.2 13.7h5.59999v-1.8h-5.59999zm18.8298-14.3429-9.8-9.60002-1.2596 1.28585 9.8 9.59997zm-11.0596-9.60002-9.80001 9.60002 1.25961 1.2858 9.8-9.59997zm-1.27021 23.04292v-4.8h-1.8v4.8zm3.80001-4.8v4.8h1.8v-4.8zm.9 5.7h5.6v-1.8h-5.6zm7.9-2.5v-11.2h-1.8v11.2zm-21.400005-11.2v11.2h1.800005v-11.2zm10.700005 5.7c.9402 0 1.9.9131 1.9 2.3h1.8c0-2.1477-1.5474-4.1-3.7-4.1zm0-1.8c-2.15259 0-3.70001 1.9523-3.70001 4.1h1.8c0-1.3869.95981-2.3 1.90001-2.3zm8.4 9.8c1.3794 0 2.3-1.2359 2.3-2.5h-1.8c0 .5033-.333.7-.5.7zm-16.8-1.8c-.16702 0-.5-.1967-.5-.7h-1.800005c0 1.2641.920615 2.5 2.300005 2.5z"
    fill="#000" />
</svg>